# xmcd
# Track frame offsets:
# 150
# 17150
# 29375
# 45600
# 59900
# 76725
# 93025
# 104975
# 121050
# 134650
# 150850
# 161050
#
# Disc length: 2391 seconds
# Revision: 0
# Processed by: cddbd v1.4PL0 Copyright (c) Steve Scherf et al.
# Submitted via: VisiTrax 2.9.5.180 - For more info visit www.synapsa.com
#
DISCID=9809550c
DTITLE=Milton Wooldridge - A blanket of flowers
DYEAR=2003
DGENRE=Country
TTITLE0=A blanket of flowers
TTITLE1=One of these days
TTITLE2=Thank you
TTITLE3=Be ye ready
TTITLE4=I know Jesus loves me
TTITLE5=How many times
TTITLE6=Old friend of mine
TTITLE7=Give God the pieces
TTITLE8=Pass it on
TTITLE9=Today will be over tonight
TTITLE10=Satan's chariot
TTITLE11=Wayfaring stranger
EXTD=
EXTT0=
EXTT1=
EXTT2=
EXTT3=
EXTT4=
EXTT5=
EXTT6=
EXTT7=
EXTT8=
EXTT9=
EXTT10=
EXTT11=
PLAYORDER=
